HIERARCHY
ROOT Hips
{
	OFFSET -3.958830 18.904000 13.208200
	CHANNELS 6 Xposition Yposition Zposition Zrotation Yrotation Xrotation 
	JOINT LHipJoint
	{
		OFFSET 0.000000 0.000000 0.000000
		CHANNELS 3 Zrotation Yrotation Xrotation
		JOINT LeftUpLeg
		{
			OFFSET 1.800000 -1.400000 0.085000
			CHANNELS 3 Zrotation Yrotation Xrotation
			JOINT LeftLeg
			{
				OFFSET 2.215000 -6.000000 0.000000
				CHANNELS 3 Zrotation Yrotation Xrotation
				JOINT LeftFoot
				{
					OFFSET 2.500000 -6.900000 0.000000
					CHANNELS 3 Zrotation Yrotation Xrotation
					JOINT LeftToeBase
					{
						OFFSET 0.200000 -0.500000 1.950000
						CHANNELS 3 Zrotation Yrotation Xrotation
						End Site
						{
							OFFSET 0.000000 0.000000 0.000000
						}
					}
				}
			}
		}
	}
	JOINT RHipJoint
	{
		OFFSET 0.000000 0.000000 0.000000
		CHANNELS 3 Zrotation Yrotation Xrotation
		JOINT RightUpLeg
		{
			OFFSET -1.800000 -1.400000 0.085000
			CHANNELS 3 Zrotation Yrotation Xrotation
			JOINT RightLeg
			{
				OFFSET -2.215000 -6.000000 0.000000
				CHANNELS 3 Zrotation Yrotation Xrotation
				JOINT RightFoot
				{
					OFFSET -2.500000 -6.900000 0.000000
					CHANNELS 3 Zrotation Yrotation Xrotation
					JOINT RightToeBase
					{
						OFFSET -0.200000 -0.500000 1.950000
						CHANNELS 3 Zrotation Yrotation Xrotation
						End Site
						{
							OFFSET 0.000000 0.000000 0.000000
						}
					}
				}
			}
		}
	}
	JOINT LowerBack
	{
		OFFSET 0.000000 0.000000 0.000000
		CHANNELS 3 Zrotation Yrotation Xrotation
		JOINT Spine
		{
			OFFSET -0.087000 1.940000 -0.288900
			CHANNELS 3 Zrotation Yrotation Xrotation
			JOINT Spine1
			{
				OFFSET 0.000000 1.950000 0.060000
				CHANNELS 3 Zrotation Yrotation Xrotation
				JOINT Neck
				{
					OFFSET 0.000000 0.000000 0.000000
					CHANNELS 3 Zrotation Yrotation Xrotation
					JOINT Neck1
					{
						OFFSET 0.000000 1.600000 0.340000
						CHANNELS 3 Zrotation Yrotation Xrotation
						JOINT Head
						{
							OFFSET 0.000000 1.667000 -0.240000
							CHANNELS 3 Zrotation Yrotation Xrotation
							End Site
							{
								OFFSET 0.000000 0.000000 0.000000
							}
						}
					}
				}
				JOINT LeftShoulder
				{
					OFFSET 0.000000 0.000000 0.000000
					CHANNELS 3 Zrotation Yrotation Xrotation
					JOINT LeftArm
					{
						OFFSET 2.700000 1.550000 -0.730000
						CHANNELS 3 Zrotation Yrotation Xrotation
						JOINT LeftForeArm
						{
							OFFSET 5.450000 0.000000 0.000000
							CHANNELS 3 Zrotation Yrotation Xrotation
							JOINT LeftHand
							{
								OFFSET 3.450000 0.000000 0.000000
								CHANNELS 3 Zrotation Yrotation Xrotation
								JOINT LeftHandIndex1
								{
									OFFSET 0.750000 0.000000 0.000000
									CHANNELS 3 Zrotation Yrotation Xrotation
									End Site
									{
										OFFSET 0.000000 0.000000 0.000000
									}
								}
							}
						}
					}
				}
				JOINT RightShoulder
				{
					OFFSET 0.000000 0.000000 0.000000
					CHANNELS 3 Zrotation Yrotation Xrotation
					JOINT RightArm
					{
						OFFSET -2.700000 1.550000 -0.730000
						CHANNELS 3 Zrotation Yrotation Xrotation
						JOINT RightForeArm
						{
							OFFSET -5.450000 0.000000 0.000000
							CHANNELS 3 Zrotation Yrotation Xrotation
							JOINT RightHand
							{
								OFFSET -3.450000 0.000000 0.000000
								CHANNELS 3 Zrotation Yrotation Xrotation
								JOINT RightHandIndex1
								{
									OFFSET -0.750000 0.000000 0.000000
									CHANNELS 3 Zrotation Yrotation Xrotation
									End Site
									{
										OFFSET 0.000000 0.000000 0.000000
									}
								}
							}
						}
					}
				}
			}
		}
	}
}
MOTION
Frames: 4
Frame Time: 0.016667
0.630750 15.884930 -6.792560 11.431722 -7.147968 15.745619 -14.911414 11.186970 1.914438 22.944349 -0.592403 -26.579021 5.315778 3.834725 13.669226 -0.362692 3.641857 3.272210 0.242220 -0.017990 0.096250 19.142966 -7.945168 6.583224 -42.665484 0.821661 -53.832922 41.645911 -28.707966 35.742008 -1.521057 -10.285684 0.890779 -0.010810 0.259090 0.172190 -5.189960 -0.704950 -8.710272 47.880078 -18.562081 19.213443 -30.104170 -4.257627 0.529260 12.072263 -13.642378 -6.749227 -22.923560 6.097574 29.135547 -6.632010 -1.060410 -8.148120 -11.154907 17.173573 -4.808454 -49.721073 4.672301 -10.072445 13.991860 -34.112934 -4.248784 -3.709022 3.037209 0.308080 0.084760 -0.104140 0.193470 -15.448160 -2.764683 7.871817 22.901774 14.795437 -4.671623 -52.259075 14.069232 -7.728021 2.675213 -2.083093 -0.113780 0.140530 0.013500 -0.050680 
0.676910 15.848390 -6.792330 12.344215 -5.743264 14.022145 -14.859258 11.194092 1.652118 22.468658 -0.844594 -21.924992 3.741471 3.626306 10.491476 -0.362164 3.453440 3.342363 0.414500 0.215690 0.125370 19.176287 -8.181038 6.500500 -43.088177 -0.644671 -52.522255 40.153271 -30.105044 37.928018 -1.630031 -10.624034 0.753437 0.124530 0.237660 0.194570 -5.289532 -0.445150 -8.531690 49.340387 -21.210081 16.593010 -32.660165 -6.910748 3.990238 12.021013 -14.217571 -6.781626 -24.718268 7.315641 28.827624 -2.776800 -2.372850 -9.240900 -11.028359 14.112658 -4.719008 -47.852153 2.881336 -6.575450 16.321848 -11.545198 -1.848606 -3.872533 3.006332 0.269710 0.052080 -0.063380 0.270470 -15.162982 -0.440209 8.078792 13.733858 17.927904 -0.552210 -31.393840 1.515299 -1.927292 2.761135 -1.945703 -0.033600 0.132300 -0.070940 0.010150 
0.716890 15.826910 -6.807380 13.445684 -5.064796 13.402863 -14.833751 11.000782 1.495334 21.552499 -1.134250 -18.640228 2.248205 3.489963 7.634028 -0.385796 3.410445 3.401332 0.465530 0.287060 0.104460 19.233128 -8.274171 6.508012 -43.833799 -2.075241 -52.937912 38.392953 -31.331503 40.345013 -1.679181 -10.958420 0.643475 0.195140 0.289770 0.181860 -5.409615 -0.087210 -8.438716 50.430028 -23.187877 13.997576 -34.938226 -8.562236 7.267382 11.604619 -14.658641 -7.532668 -26.199788 8.166851 26.573399 0.140800 -3.234430 -9.082830 -9.473969 11.783631 -3.958798 -47.043732 1.824042 -3.736292 13.154059 3.193512 0.349798 -4.016577 2.975311 0.235860 0.062550 -0.094700 0.307780 -15.434343 1.315732 8.704561 6.734699 17.471360 3.179963 -15.766055 -2.116900 -0.446194 2.687352 -1.662234 -0.037250 0.172890 -0.079220 0.044120 
0.747940 15.795400 -6.806470 14.108800 -3.932204 12.977804 -14.849419 10.791172 1.585204 21.638897 -1.319316 -16.584467 0.123137 3.600629 4.888426 -0.411347 3.590547 3.348176 0.461390 0.295240 0.079820 19.241247 -8.218973 6.460143 -44.622176 -3.471471 -52.538559 38.047159 -32.375628 41.344345 -1.700780 -11.184214 0.566406 0.233510 0.316060 0.179960 -5.392157 -0.033835 -8.477775 51.126554 -24.757283 12.595186 -36.021680 -9.807336 8.589023 11.602570 -14.757650 -7.655120 -26.121496 7.951881 24.526801 -0.097930 -3.163700 -9.266720 -8.378481 11.281934 -3.828952 -45.897982 1.698477 -2.489819 8.968248 10.954764 1.085549 -4.132591 2.929872 0.221150 0.094690 -0.128840 0.298000 -16.471859 1.854304 9.005292 4.479031 17.484674 4.730757 -9.424254 -3.855540 -0.250752 2.595006 -1.527139 -0.062550 0.186800 -0.048300 0.036900 
